<svg xmlns="http://www.w3.org/2000/svg" viewBox="0 0 206.76 248.82"><defs><style>.cls-1,.cls-7{fill:#fff;}.cls-2,.cls-6,.cls-8,.cls-9{fill:#da127b;}.cls-3{fill:#ff7dce;}.cls-3,.cls-4,.cls-5,.cls-7{stroke:#da127b;stroke-miterlimit:10;stroke-width:2px;}.cls-3,.cls-5,.cls-6{fill-rule:evenodd;}.cls-10,.cls-4,.cls-5{fill:none;}.cls-8{opacity:0.8;}.cls-9{opacity:0.15;}</style></defs><title>Fichier 10</title><g id="Calque_2" data-name="Calque 2"><g id="Calque_2-2" data-name="Calque 2"><path class="cls-1" d="M80.54,133.87s3.86.4,4.86-2.6,0-8,0-8l34.58-3s-1,5,0,8,4.86,2.6,4.86,2.6l-17.44,52.4Z"/><path class="cls-1" d="M99.91,125.26c-23.66,0-41.5-19.13-41.5-44.5v-29c0-25.37,17.84-44.5,41.5-44.5s41.5,19.13,41.5,44.5v29C141.41,106.13,123.57,125.26,99.91,125.26Z"/><path class="cls-2" d="M99.91,8.26c23.09,0,40.5,18.7,40.5,43.5v29c0,24.8-17.41,43.5-40.5,43.5s-40.5-18.7-40.5-43.5v-29c0-24.8,17.41-43.5,40.5-43.5m0-2h0c-25,0-42.5,20.47-42.5,45.5v29c0,25,17.47,45.5,42.5,45.5h0c25,0,42.5-20.47,42.5-45.5v-29c0-25-17.47-45.5-42.5-45.5Z"/><path class="cls-3" d="M79.91,98.69s0-7.71,23,0"/><line class="cls-4" x1="76.91" y1="98.76" x2="110.91" y2="98.76"/><path class="cls-5" d="M86.91,104.76a7.2,7.2,0,0,1,7,0"/><path class="cls-6" d="M109.91,66.26h0a2.51,2.51,0,0,1-2.5-2.5v-5a2.51,2.51,0,0,1,2.5-2.5h0a2.51,2.51,0,0,1,2.5,2.5l-1.5,2,1.5-.57v3.57A2.51,2.51,0,0,1,109.91,66.26Z"/><path class="cls-6" d="M77.91,66.26h0a2.51,2.51,0,0,1-2.5-2.5v-5a2.51,2.51,0,0,1,2.5-2.5h0a2.51,2.51,0,0,1,2.5,2.5l-1.5,2,1.5-.57v3.57A2.51,2.51,0,0,1,77.91,66.26Z"/><line class="cls-4" x1="67.41" y1="48.26" x2="84.41" y2="48.26"/><line class="cls-4" x1="100.41" y1="47.76" x2="117.41" y2="47.76"/><path class="cls-4" d="M88.91,75.76,86,81.07s-1.34,2.69,1.34,2.69h8.07"/><path class="cls-7" d="M69.91,114.76l-33-12c8-1,10-37,9-29-2,23-9,25-9,25,12-9,1-68,37-85,17-19,44-14,66-3,26,9,29,93,29,93h-4c-4,0-13-38-13-38,1,13,11,39,11,39-8-1-43,16-43,16-10-9,3-63,3-63-15,46-7,60-7,60-13-10,12-80,12-80s4-4-3-11c-20-12-50-2-50-2S65.15,20.38,60.2,37c-5.29,17.75-4.29,65.75,7.71,75.75Z"/><path class="cls-8" d="M73.41,116.26l-36.5-13.5c8-1,10-37,9-29-2,23-9,25-9,25,12-9,1-68,37-85,17-19,44-14,66-3,26,9,29,93,29,93h-4c-4,0-13-38-13-38,1,13,11,39,11,39-8-1-43,16-43,16-10-9,3-63,3-63-15,46-7,60-7,60-13-10,12-80,12-80s4-4-3-11c-20-12-50-2-50-2S65.15,20.38,60.2,37c-5.29,17.75-3.79,64.25,8.21,74.25Z"/><polyline class="cls-1" points="78.91 132.76 123.91 210.76 80.91 230.76 1.41 210.26 33.91 136.76 78.91 132.76"/><polyline class="cls-4" points="79.91 132.76 124.91 210.76 81.91 230.76 1.41 207.26 34.91 136.76 79.91 132.76"/><polyline class="cls-7" points="125.41 129.64 60.41 227.64 103.41 247.64 189.41 175.64 170.41 133.64 125.41 129.64"/><polyline class="cls-9" points="78.91 132.76 123.91 210.76 80.91 230.76 1.41 210.26 33.91 136.76 78.91 132.76"/><polyline class="cls-7" points="125.41 129.64 60.41 227.64 103.41 247.64 205.41 211.26 170.41 133.64 125.41 129.64"/><line class="cls-10" x1="79.91" y1="132.76" x2="124.91" y2="210.76"/><polyline class="cls-9" points="126.41 129.64 61.41 227.64 104.41 247.64 205.41 215.26 171.41 133.64 126.41 129.64"/><path class="cls-4" d="M80.54,133.87s3.86.4,4.86-2.6,0-8,0-8"/><path class="cls-4" d="M124.85,130.87s-3.86.4-4.86-2.6,0-8,0-8"/></g></g></svg>