<svg xmlns="http://www.w3.org/2000/svg" viewBox="0 0 598.5 169"><defs><style>.cls-1,.cls-2{fill:none;stroke-miterlimit:10;stroke-width:16px;}.cls-1{stroke:#98d3f4;}.cls-2{stroke:#337ada;}</style></defs><title>Fichier 3</title><g id="Calque_2" data-name="Calque 2"><g id="Calque_1-2" data-name="Calque 1"><path class="cls-1" d="M159,53s-12-11-29-11C92,42,91,84,91,84c0,12-12,41-44,41C25,125,8,105.11,8,81,8,59,21.46,41.66,48,41"/><line class="cls-1" x1="8" y1="84" x2="89" y2="84"/><line class="cls-1" x1="173" x2="173" y2="90"/><path class="cls-1" d="M258,82s-2-41,41-41c40,0,42,42,42,42v86"/><path class="cls-1" d="M341,84s7,41,41,41c37,0,44-41,44-41h80"/><path class="cls-1" d="M425,82s5-41,40-41,43,33,43,43"/><line class="cls-1" x1="590" y1="122" x2="590" y2="81"/><path class="cls-2" d="M590.5,83.5c0-23-18-42-41-42s-40,18-41,42-19,43-42,42-42-18-42-42-16-42-42-42-40,18-41,42-22,42-45,42-36-17-38-41-28-39-44-39-39,14-40,34-9,45-46,46-38-39-38-39-.23-2.1-.94-5.4C86.95,68.95,77.81,40.5,49.5,40.5c-25.5-.5-41,19-41,35"/></g></g></svg>