<?xml version="1.0" encoding="UTF-8" standalone="no"?>
<svg width="12px" height="21px" viewBox="0 0 12 21" version="1.1" xmlns="http://www.w3.org/2000/svg" xmlns:xlink="http://www.w3.org/1999/xlink">
    <!-- Generator: Sketch 45.1 (43504) - http://www.bohemiancoding.com/sketch -->
    <title>Shape</title>
    <desc>Created with Sketch.</desc>
    <defs></defs>
    <g id="Page-1" stroke="none" stroke-width="1" fill="none" fill-rule="evenodd">
        <g id="Mobile_LAB" transform="translate(-235.000000, -4908.000000)" fill-rule="nonzero" fill="#FFFFFF">
            <g id="Footer" transform="translate(-7.000000, 4889.000000)">
                <g id="Sociaux" transform="translate(242.000000, 18.000000)">
                    <g id="facebook-logo" transform="translate(0.000000, 1.000000)">
                        <path d="M10.8493606,0.0043320332 L8.14942086,0 C5.11613121,0 3.15588619,2.01114641 3.15588619,5.12392887 L3.15588619,7.48640318 L0.441217582,7.48640318 C0.206637984,7.48640318 0.0166783278,7.67657944 0.0166783278,7.91115904 L0.0166783278,11.3341151 C0.0166783278,11.5686947 0.206854585,11.7586543 0.441217582,11.7586543 L3.15588619,11.7586543 L3.15588619,20.3958621 C3.15588619,20.6304417 3.34584584,20.8204014 3.58042544,20.8204014 L7.12229579,20.8204014 C7.35687539,20.8204014 7.54683504,20.6302251 7.54683504,20.3958621 L7.54683504,11.7586543 L10.7209158,11.7586543 C10.9554954,11.7586543 11.145455,11.5686947 11.145455,11.3341151 L11.1467546,7.91115904 C11.1467546,7.79852617 11.1019181,7.69065855 11.0224253,7.61094913 C10.9429325,7.53123972 10.8346316,7.48640318 10.7219988,7.48640318 L7.54683504,7.48640318 L7.54683504,5.48370423 C7.54683504,4.52112645 7.7762162,4.03247311 9.03012321,4.03247311 L10.8489274,4.0318233 C11.0832903,4.0318233 11.27325,3.84164704 11.27325,3.60728405 L11.27325,0.428871287 C11.27325,0.194724892 11.083507,0.00476523652 10.8493606,0.0043320332 Z" id="Shape"></path>
                    </g>
                </g>
            </g>
        </g>
    </g>
</svg>