<svg xmlns="http://www.w3.org/2000/svg" viewBox="0 0 263.64 327.98"><defs><style>.cls-1{fill:#fff;}.cls-1,.cls-2,.cls-4,.cls-5{stroke:#4a4570;stroke-miterlimit:10;stroke-width:2px;}.cls-2,.cls-6{fill:#4a4570;}.cls-3{fill:#3bf4ef;}.cls-4{fill:none;}.cls-5{fill:#020202;}</style></defs><title>Fichier 13</title><g id="Calque_2" data-name="Calque 2"><g id="Calque_4" data-name="Calque 4"><path class="cls-1" d="M113.49,10.3A6.75,6.75,0,0,1,118,16.68V187.23a4.68,4.68,0,0,1-2.54,4.16c-6.35,3.29-24.68,8.09-55.46,8.09-30.33,0-49.17-4.58-56-7.94a5.28,5.28,0,0,1-3-4.75V16.84a7.06,7.06,0,0,1,4.68-6.65A163.3,163.3,0,0,1,59,1,171.22,171.22,0,0,1,113.49,10.3Z"/><rect class="cls-2" x="5" y="20" width="109" height="157"/><path class="cls-1" d="M173.37,35.92,231.7,23.7s9-.46,12.43,20.26L262.5,156.47l-57.35,12.06"/><path class="cls-3" d="M232,24,173,36l-3.7,1.88-2.68,4.19v6L171,73l19.81,7.69L248,68l-5-29S239,25,232,24Z"/><path class="cls-4" d="M170.75,72.94l20.06,7.75L187.1,58s-3.87-23.69-13.74-22.07-6,16.3-6,16.3Z"/><path class="cls-5" d="M42,34s18,11,36,0l36,90.8v39.28S76.8,177,54.4,177,5,165,5,165V124.8Z"/><line class="cls-4" x1="191" y1="80" x2="248.16" y2="67.63"/><path class="cls-4" d="M59,199S49,340,140,326s51-91,51-91-28-46-77-7,0,79,0,79,57,44,106-11c0,0,26.72-44.38,12.36-133.19"/><rect class="cls-6" x="56" y="200" width="6" height="9"/><polygon class="cls-1" points="170.75 72.94 184.77 158.81 205.16 168.53 190.81 80.69 170.75 72.94"/></g></g></svg>