<?xml version="1.0" encoding="UTF-8" standalone="no"?>
<svg width="1280px" height="721px" viewBox="0 0 1280 721" version="1.1" xmlns="http://www.w3.org/2000/svg" xmlns:xlink="http://www.w3.org/1999/xlink">
    <!-- Generator: Sketch 45.1 (43504) - http://www.bohemiancoding.com/sketch -->
    <title>Group 3</title>
    <desc>Created with Sketch.</desc>
    <defs>
        <linearGradient x1="100%" y1="50%" x2="0%" y2="50%" id="linearGradient-1">
            <stop stop-color="#3C6EB5" offset="0%"></stop>
            <stop stop-color="#4483B8" offset="20%"></stop>
            <stop stop-color="#4999BB" offset="49.755174%"></stop>
            <stop stop-color="#4BB0BD" offset="72.2271296%"></stop>
            <stop stop-color="#4BC6BF" offset="87.8158792%"></stop>
            <stop stop-color="#46DDC1" offset="100%"></stop>
        </linearGradient>
        <linearGradient x1="50%" y1="100%" x2="50%" y2="3.061617e-15%" id="linearGradient-2">
            <stop stop-color="#3C6EB5" offset="0%"></stop>
            <stop stop-color="#4483B8" offset="20%"></stop>
            <stop stop-color="#4999BB" offset="49.755174%"></stop>
            <stop stop-color="#4BB0BD" offset="72.2271296%"></stop>
            <stop stop-color="#4BC6BF" offset="87.8158792%"></stop>
            <stop stop-color="#46DDC1" offset="100%"></stop>
        </linearGradient>
    </defs>
    <g id="Page-1" stroke="none" stroke-width="1" fill="none" fill-rule="evenodd">
        <g id="Desktop-Copy" transform="translate(0.000000, -1773.000000)">
            <g id="Encart-promo-Copy" transform="translate(-250.000000, 1773.000000)">
                <g id="Group-3">
                    <path d="M239.300779,144.590315 C444.810205,-64.6048632 872.077355,156.774998 1144.37446,215.385891 C1444.24126,279.931052 1544.30078,183.066714 1544.30078,183.066714 L1544.30078,662.071068 C1544.30078,662.071068 577.670853,794.661165 243.300779,662.071068 C-74.829147,535.920789 -85.9492208,264.341404 239.300779,144.590315 Z" id="Rectangle-2-Copy-4" fill="url(#linearGradient-1)"></path>
                    <path d="M239.300779,88.2508631 C444.810205,-120.944315 872.077355,100.435546 1144.37446,159.046439 C1444.24126,223.5916 1544.30078,126.727261 1544.30078,126.727261 L1544.30078,605.731616 C1544.30078,605.731616 577.670853,738.321713 243.300779,605.731616 C-74.829147,479.581337 -85.9492208,208.001952 239.300779,88.2508631 Z" id="Rectangle-2-Copy-6" fill="url(#linearGradient-2)" opacity="0.658523787"></path>
                </g>
            </g>
        </g>
    </g>
</svg>