<svg xmlns="http://www.w3.org/2000/svg" viewBox="0 0 222.15 227.93"><defs><style>.cls-1,.cls-10,.cls-8,.cls-9{fill:#fff;}.cls-2,.cls-5,.cls-6{fill:#30efd7;}.cls-3,.cls-4,.cls-7{fill:none;}.cls-11,.cls-3,.cls-4,.cls-9{stroke:#30efd7;}.cls-11,.cls-3,.cls-4,.cls-8,.cls-9{stroke-miterlimit:10;stroke-width:2px;}.cls-4,.cls-5{fill-rule:evenodd;}.cls-10,.cls-6{opacity:0.15;}.cls-8{stroke:#da127b;}.cls-11{fill:#a0f9ec;}</style></defs><title>Fichier 11</title><g id="Calque_2" data-name="Calque 2"><g id="Calque_3" data-name="Calque 3"><path class="cls-1" d="M84.7,145.54s3.86.4,4.86-2.6,0-8,0-8l40-11s-1,13,0,16a6.93,6.93,0,0,0,3,4l3,78-54,2Z"/><ellipse class="cls-1" cx="67.07" cy="83.43" rx="6.5" ry="8.5"/><path class="cls-2" d="M67.07,75.93c3,0,5.5,3.36,5.5,7.5s-2.47,7.5-5.5,7.5-5.5-3.36-5.5-7.5,2.47-7.5,5.5-7.5m0-2c-4.14,0-7.5,4.25-7.5,9.5s3.36,9.5,7.5,9.5,7.5-4.25,7.5-9.5-3.36-9.5-7.5-9.5Z"/><path class="cls-1" d="M100.92,137.93c-14.05-.11-25.21-16-30.57-23.58-.94-1.33-1.68-2.38-2.26-3.11a4.85,4.85,0,0,1-.94-1.92c-1-4.15-2-10.74-2.36-13.55-.09-.59-.15-1-.22-1.38v-32a41.5,41.5,0,1,1,83,0v27.5h0c-.21.74-.45,2-.88,4.28-.85,4.47-2.14,11.23-3,15a5,5,0,0,1-1.22,2.31C131.9,122.95,120.78,131.8,100.92,137.93Z"/><path class="cls-2" d="M106.07,21.93a40.55,40.55,0,0,1,40.5,40.5V89.74c-.09.33-.16.68-.23,1.05-.15.79-.37,1.92-.62,3.24-.85,4.46-2.14,11.2-3,15a4,4,0,0,1-1,1.85c-10.45,11.25-21.43,20-41,26.06-13.47-.22-24.36-15.69-29.61-23.15-.95-1.34-1.69-2.41-2.3-3.16a3.86,3.86,0,0,1-.74-1.52c-1-4.1-1.94-10.66-2.34-13.46-.07-.47-.13-.9-.21-1.29V62.43a40.55,40.55,0,0,1,40.5-40.5m0-2h0a42.5,42.5,0,0,0-42.5,42.5v32c.05,0,1.28,9.61,2.61,15.15a5.87,5.87,0,0,0,1.13,2.31c3.91,4.87,16.66,27.06,33.76,27.06h0c19.12-5.88,30.51-14.17,42.15-26.7a6,6,0,0,0,1.46-2.77c1.37-6.06,3.82-19.54,3.89-19.54h0V62.43a42.5,42.5,0,0,0-42.5-42.5Z"/><path class="cls-3" d="M83.57,105.19c0,8.59,34,5,34,5"/><path class="cls-4" d="M100.07,118.43a6.18,6.18,0,0,0-7-1"/><path class="cls-5" d="M116.07,79.93h0a2.51,2.51,0,0,1-2.5-2.5v-5a2.51,2.51,0,0,1,2.5-2.5h0a2.51,2.51,0,0,1,2.5,2.5l-1.5,2,1.5-.57v3.57A2.51,2.51,0,0,1,116.07,79.93Z"/><path class="cls-5" d="M84.07,79.93h0a2.51,2.51,0,0,1-2.5-2.5v-5a2.51,2.51,0,0,1,2.5-2.5h0a2.51,2.51,0,0,1,2.5,2.5l-1.5,2,1.5-.57v3.57A2.51,2.51,0,0,1,84.07,79.93Z"/><line class="cls-3" x1="73.57" y1="61.93" x2="90.57" y2="62.93"/><line class="cls-3" x1="106.57" y1="62.93" x2="123.57" y2="61.43"/><path class="cls-3" d="M93.57,82.93l-5,13s-1.68,2.56.88,3.36l7.7,2.41"/><polyline class="cls-1" points="86.07 145.43 85.57 223.93 85.57 223.93 1.57 214.93 34.39 149.65 86.07 145.43"/><polyline class="cls-3" points="85.57 220.93 1.57 212.93 34.39 149.43 86.07 145.43"/><line class="cls-3" x1="86.07" y1="145.43" x2="85.57" y2="220.93"/><polyline class="cls-6" points="86.07 145.43 85.57 223.93 85.57 223.93 1.57 214.93 34.39 149.65 86.07 145.43"/><line class="cls-7" x1="86.07" y1="146.43" x2="84.57" y2="196.93"/><polyline class="cls-8" points="131.74 143.31 130.57 197.31 130.57 197.31 206.57 189.31 184.35 147.31 131.74 143.31"/><polyline class="cls-9" points="131.74 143.31 129.57 223.93 220.57 215.93 184.35 147.31 131.74 143.31"/><polyline class="cls-6" points="131.74 143.31 130.57 227.93 220.57 217.93 184.35 147.51 131.74 143.31"/><polyline class="cls-10" points="131.74 143.31 130.57 227.93 220.57 217.93 184.35 147.51 131.74 143.31"/><path class="cls-3" d="M85.57,145.93a6.83,6.83,0,0,0,4-4c1-3,0-8,0-8"/><path class="cls-3" d="M132,143.54a14,14,0,0,1-2.44-4.6c-1-3,0-15,0-15"/><path class="cls-3" d="M87.07,146.43s22.87,14.62,44-2"/><line class="cls-3" x1="135.57" y1="221.93" x2="82.05" y2="223.56"/><path class="cls-1" d="M154.07,92.93c-3.4,0-6.5-4.53-6.5-9.5,0-4.69,2.92-8.5,6.5-8.5s6.5,3.81,6.5,8.5C160.57,88.41,157.47,92.93,154.07,92.93Z"/><path class="cls-2" d="M154.07,75.93c3,0,5.5,3.36,5.5,7.5,0,4.29-2.72,8.5-5.5,8.5s-5.5-4.21-5.5-8.5c0-4.14,2.47-7.5,5.5-7.5m0-2c-4.14,0-7.5,4.25-7.5,9.5s3.36,10.5,7.5,10.5,7.5-5.25,7.5-10.5-3.36-9.5-7.5-9.5Z"/><path class="cls-9" d="M153.57,78.93s-3,2-2,4c0,0,6,0,3,4"/><path class="cls-11" d="M147.57,68.93l4-25-10-9,6-9s-10,2-12,1v-6l-2,1s-5-11-12-11-24-9-24-9,1,4,3,5-20-2-20,0c0,0,5,2,5,3s-19,7-22,5c0,0,12,12,16,10l-22,4s1,7,7,8l-7,6s3,5,6,5l-3,3s3.39,4.77,4.2,3.39c-.2-.39,2.8-10.39,9.8-10.39l-2,4s16-3,16-5l-8,9s22-4,23-8l-1,6s17-5,19-7c0,0,1,1,0,3,0,0,5-2,5-3C126.57,42.93,135.57,43.93,147.57,68.93Z"/><path class="cls-3" d="M60.6,66.42c5.71-.86,16.53-2.3,28.07-.12a3.57,3.57,0,0,1,2.89,3.52v6.72c0,.29,0,3.58-.1,3.86-.57,2.21-3.79,11.53-17.9,11.53-14.29,0-15.41-10.37-15.92-12.59-.06-.25-.08-3.51-.08-3.77V70A3.57,3.57,0,0,1,60.6,66.42Z"/><path class="cls-3" d="M104.6,66.42c5.71-.86,16.53-2.3,28.07-.12a3.57,3.57,0,0,1,2.89,3.52v6.72c0,.29,0,3.58-.1,3.86-.57,2.21-1.79,11.53-15.9,11.53-14.29,0-17.41-10.37-17.92-12.59-.06-.25-.08-3.51-.08-3.77V70A3.57,3.57,0,0,1,104.6,66.42Z"/><path class="cls-3" d="M91.57,72.93s4-3,10,0"/><line class="cls-3" x1="90.84" y1="68.74" x2="102.57" y2="68.93"/><path class="cls-3" d="M135.57,69.93h16s8,0,6,6"/><line class="cls-3" x1="57.57" y1="69.93" x2="64.57" y2="69.93"/></g></g></svg>