<svg xmlns="http://www.w3.org/2000/svg" viewBox="0 0 183.14 222.15"><defs><style>.cls-1,.cls-6{fill:#fff;}.cls-2,.cls-5{fill:#4a4570;}.cls-3,.cls-4{fill:none;}.cls-3,.cls-4,.cls-6,.cls-7{stroke:#4a4570;stroke-miterlimit:10;stroke-width:2px;}.cls-4,.cls-5{fill-rule:evenodd;}.cls-7{fill:#8c8abc;}</style></defs><title>Fichier 12</title><g id="Calque_2" data-name="Calque 2"><g id="Calque_4" data-name="Calque 4"><path class="cls-1" d="M66.37,132.68s4.08.43,5.13-2.84,0-8.72,0-8.72l42.22-12s-1.06,14.17,0,17.44a7.49,7.49,0,0,0,3.17,4.36l3.17,85-57,2.18Z"/><ellipse class="cls-1" cx="50.56" cy="70.64" rx="6.5" ry="8.5"/><path class="cls-2" d="M50.56,63.14c3,0,5.5,3.36,5.5,7.5s-2.47,7.5-5.5,7.5-5.5-3.36-5.5-7.5,2.47-7.5,5.5-7.5m0-2c-4.14,0-7.5,4.25-7.5,9.5s3.36,9.5,7.5,9.5,7.5-4.25,7.5-9.5-3.36-9.5-7.5-9.5Z"/><path class="cls-1" d="M84.41,125.13c-14.05-.11-25.21-16-30.57-23.58-.94-1.33-1.68-2.38-2.26-3.11a4.84,4.84,0,0,1-.94-1.92c-1-4.15-2-10.74-2.36-13.55-.09-.59-.15-1-.22-1.38v-32a41.5,41.5,0,1,1,83,0v27.5h0c-.21.74-.45,2-.88,4.28-.85,4.47-2.14,11.23-3,15A5,5,0,0,1,126,98.75C115.4,110.15,104.27,119,84.41,125.13Z"/><path class="cls-2" d="M89.56,9.14a40.55,40.55,0,0,1,40.5,40.5V76.94c-.09.33-.16.68-.23,1.05-.16.79-.37,1.92-.62,3.24-.85,4.46-2.14,11.2-3,15a4,4,0,0,1-1,1.85c-10.45,11.25-21.43,20-41,26.06C70.8,123.91,59.91,108.44,54.66,101c-.95-1.34-1.69-2.41-2.3-3.16a3.86,3.86,0,0,1-.74-1.52c-1-4.1-1.94-10.66-2.34-13.46-.07-.47-.13-.9-.21-1.29V49.64a40.55,40.55,0,0,1,40.5-40.5m0-2h0a42.5,42.5,0,0,0-42.5,42.5v32c.05,0,1.28,9.61,2.61,15.15a5.87,5.87,0,0,0,1.13,2.31c3.91,4.87,16.66,27.06,33.76,27.06h0c19.12-5.88,30.51-14.17,42.15-26.7a6,6,0,0,0,1.46-2.77c1.37-6.06,3.82-19.54,3.89-19.54h0V49.64a42.5,42.5,0,0,0-42.5-42.5Z"/><path class="cls-3" d="M67.06,95.14c5,2.71,34,1.54,34,1.54"/><path class="cls-4" d="M83.66,103.81a6.18,6.18,0,0,1-7-.71"/><path class="cls-5" d="M99.56,68.14h0a2.51,2.51,0,0,1-2.5-2.5v-5a2.51,2.51,0,0,1,2.5-2.5h0a2.51,2.51,0,0,1,2.5,2.5l-1.5,2,1.5-.57v3.57A2.51,2.51,0,0,1,99.56,68.14Z"/><path class="cls-5" d="M67.56,68.14h0a2.51,2.51,0,0,1-2.5-2.5v-5a2.51,2.51,0,0,1,2.5-2.5h0a2.51,2.51,0,0,1,2.5,2.5l-1.5,2,1.5-.57v3.57A2.51,2.51,0,0,1,67.56,68.14Z"/><line class="cls-3" x1="57.06" y1="55.14" x2="74.06" y2="55.14"/><line class="cls-3" x1="90.06" y1="55.14" x2="107.06" y2="55.64"/><path class="cls-3" d="M80.06,62.14,71.81,79a4.54,4.54,0,0,0-.62,2.61c-.13,5.55,10.87,4.55,10.87,4.55"/><path class="cls-3" d="M70.06,133.14s1.35-1,1.8-4a43.76,43.76,0,0,0,0-8"/><path class="cls-3" d="M115.06,130.74a16.38,16.38,0,0,1-1.69-4.6c-.69-3,0-15,0-15"/><path class="cls-1" d="M137.56,80.14c-3.4,0-6.5-4.53-6.5-9.5,0-4.69,2.92-8.5,6.5-8.5s6.5,3.81,6.5,8.5C144.06,75.61,141,80.14,137.56,80.14Z"/><path class="cls-2" d="M137.56,63.14c3,0,5.5,3.36,5.5,7.5,0,4.29-2.72,8.5-5.5,8.5s-5.5-4.21-5.5-8.5c0-4.14,2.47-7.5,5.5-7.5m0-2c-4.14,0-7.5,4.25-7.5,9.5s3.36,10.5,7.5,10.5,7.5-5.25,7.5-10.5-3.36-9.5-7.5-9.5Z"/><path class="cls-6" d="M137.06,66.14s-3,2-2,4c0,0,6,0,3,4"/><path class="cls-7" d="M124.06,27.14s-8-17-19-20-21,0-27-5c0,0,0,4,2,4s-10,3-12,0c0,0,0,3,1,3s-9,5-12,2c0,0,4,6,5,4,0,0-12,4-11,6h7s-9,6-7,8l-1,8s9-10,10-9c0,0,5-3,8-3,0,1-2,6-2,6s-3,6,0,6c1-3,8-9,8-9s1,6,0,7l7-6s1,5,0,6c0,0,10-2,9-6l3,5s5-5,4-6,6,3,5,4c0,0,4-5,3-5l3,5Z"/><path class="cls-7" d="M131.06,64.14s-16-28-20-30l15-5,4,11,1,6v18"/><polygon class="cls-6" points="97.06 128.13 88.06 146.13 62.06 217.13 130.06 221.13 182.06 183.13 176.06 143.13 120.06 131.13 97.06 128.13"/><polygon class="cls-6" points="82.06 129.13 84.06 146.13 88.06 219.13 34.06 220.13 1.06 178.13 8.06 138.13 53.06 132.13 82.06 129.13"/><path class="cls-6" d="M114.06,118.14l-18,10,8,18,15-16S114.06,121.14,114.06,118.14Z"/><path class="cls-6" d="M85.43,179.92s3.63-10.79,6.63-18.79-6-9-6-9l2-6c-5-2-5-17-5-17l-9.73-3.74"/><polygon class="cls-6" points="70.06 124.14 66.06 137.13 79.06 146.13 83.06 129.13 70.06 124.14"/></g></g></svg>