<svg xmlns="http://www.w3.org/2000/svg" viewBox="0 0 535 491"><defs><style>.cls-1{fill:#fff;}.cls-1,.cls-2,.cls-4,.cls-5{stroke:#4a4570;}.cls-1,.cls-2,.cls-4,.cls-5,.cls-7{stroke-miterlimit:10;stroke-width:2px;}.cls-2,.cls-6{fill:#4a4570;}.cls-3{fill:#3bf4ef;}.cls-4,.cls-7{fill:none;}.cls-5{fill:#020202;}.cls-7{stroke:#fff;}</style></defs><title>Fichier 14</title><g id="Calque_2" data-name="Calque 2"><g id="Calque_6" data-name="Calque 6"><circle class="cls-1" cx="247.5" cy="233.5" r="55.5"/><path class="cls-1" d="M243,199.82a1.53,1.53,0,0,1,1,1.44v38.58a1.06,1.06,0,0,1-.57.94c-1.44.74-5.58,1.83-12.54,1.83s-11.12-1-12.68-1.8a1.19,1.19,0,0,1-.67-1.07V201.3a1.6,1.6,0,0,1,1.06-1.51,36.94,36.94,0,0,1,12.06-2.08A38.73,38.73,0,0,1,243,199.82Z"/><rect class="cls-2" x="218.46" y="202.01" width="24.66" height="35.51"/><path class="cls-1" d="M256.55,205.62l13.19-2.76s2-.1,2.81,4.58l4.16,25.45-13,2.73"/><path class="cls-3" d="M269.47,203l-13,2.7-.82.42-.59.94v1.35l1,5.6,4.38,1.73L273,212.89l-1.1-6.52S271,203.22,269.47,203Z"/><path class="cls-4" d="M256,214l4.54,1.75-.84-5.13s-.88-5.36-3.11-5-1.36,3.69-1.36,3.69Z"/><path class="cls-5" d="M226.83,205.18a8.24,8.24,0,0,0,8.14,0l8.14,20.54v8.89s-8.42,2.92-13.48,2.92-11.17-2.7-11.17-2.7v-9.1Z"/><line class="cls-4" x1="260.54" y1="215.59" x2="273.47" y2="212.79"/><path class="cls-4" d="M230.68,242.5S228.42,274.4,249,271.23s11.54-20.58,11.54-20.58-6.33-10.41-17.42-1.58,0,17.87,0,17.87,12.89,10,24-2.49c0,0,6-10,2.8-30.13"/><rect class="cls-6" x="230" y="242.73" width="1.36" height="2.04"/><polygon class="cls-1" points="255.96 213.99 259.13 233.41 263.74 235.61 260.49 215.74 255.96 213.99"/><circle class="cls-6" cx="123.5" cy="85.5" r="67.5"/><circle class="cls-6" cx="148.5" cy="423.5" r="67.5"/><circle class="cls-6" cx="467.5" cy="214.5" r="67.5"/><circle class="cls-6" cx="40.5" cy="233.5" r="40.5"/><circle class="cls-6" cx="416.5" cy="355.5" r="40.5"/><circle class="cls-6" cx="335.5" cy="40.5" r="40.5"/><line class="cls-4" x1="162" y1="141" x2="210" y2="193"/><line class="cls-4" x1="271" y1="183" x2="321" y2="78"/><line class="cls-4" x1="303" y1="234" x2="401" y2="225"/><line class="cls-4" x1="192" y1="234" x2="73" y2="238"/><line class="cls-4" x1="218" y1="281" x2="172" y2="370"/><line class="cls-4" x1="285" y1="274" x2="381" y2="336"/><path class="cls-7" d="M320,23s-14,7-3,8,15,0,15,0"/><path class="cls-7" d="M314,31s-10,7,1,8c0,0,15-2,17-4"/><path class="cls-7" d="M312,39s-9,6,2,8,18-6,18-6"/><path class="cls-7" d="M311,47s-3,9,3,9,18-8,18-11"/><path class="cls-7" d="M320,23s-2,3,2,3h11s-3,19,0,21c3.43,2.29,5,0,5,0s2-12-.32-21h11c4,0,2-3,2-3"/><path class="cls-7" d="M350.68,23s14,7,3,8-15,0-15,0"/><path class="cls-7" d="M356.68,31s10,7-1,8c0,0-15-2-17-4"/><path class="cls-7" d="M358.68,39s10,6-1,8S339,41,339,41"/><path class="cls-7" d="M358.68,47s4,9-2,9-18-8-18-11"/><path class="cls-7" d="M455.6,171.39s49.53-11.52,48.38,38c-10.37,49.53-35.71,18.43-35.71,9.22,0-5.76,4.61-6.91-5.76-15-6.91-4.61-21.89-1.15-20.73-18.43C445.23,172.54,455.6,171.39,455.6,171.39Z"/><path class="cls-7" d="M451,200.19s2.3,4.61-3.46,13.82c-8.21,13.14-2.3,20.73-2.3,20.73s8.06,9.22-8.06,20.73"/><path class="cls-7" d="M468.27,216.32s-5.76,10.37-24.26,2.73"/><path class="cls-7" d="M447.54,214s13.82,0,15-10.37"/><path class="cls-7" d="M96.43,68.76S80,70.13,80,86.56s17.8,26,17.8,26S126.56,126.27,132,124.9c5.48,0,8.22,0,8.22-4.11s9.59-16.43,8.22-28.76-6.85-23.28-13.69-21.91-9.59,15.06-9.59,15.06"/><path class="cls-7" d="M140.25,120.8s-32.87-15.06-35.6-12.32c-2.74-1.37-16.43-19.17-1.37-23.28"/><path class="cls-7" d="M99.89,60.94a23.07,23.07,0,0,0,0,25.67"/><path class="cls-7" d="M107.5,52.48,118.34,40l11,9.59s-11.52,2.38-12.61,8"/><path class="cls-7" d="M111.12,70.44s-2.36,10.64.37,12c0,0,1.37-8.22,4.11-8.22L97.8,59.17l4.11-9.59s21.91,11,21.91,13.69c0,0,9.59-19.17,28.76-6.85v17.8S147.51,65,137.72,70.3"/><path class="cls-7" d="M121.31,52.51s6.51,2.7,7.25,4.68"/><path class="cls-7" d="M137.52,78.34s8.22,8.22,4.11,23.28S136.18,119,136.18,119"/><ellipse class="cls-7" cx="18.25" cy="222.01" rx="4.86" ry="7.13" transform="translate(-188.41 138.87) rotate(-63.39)"/><ellipse class="cls-7" cx="63.03" cy="222.2" rx="7.13" ry="4.86" transform="translate(-28.83 10.28) rotate(-7.6)"/><path class="cls-7" d="M22.28,218.85s5.25.16,6.3,4.12,12.89,11.84,22.51,3.35c2.06-1.82,1.09-7.07,6.44-6.81"/><path class="cls-7" d="M62,227.1c-.28,3.32-4.57,1.57-4.57,1.57s-4.65-.39-3.76,8.2c.77,7.45-3.34,11.1-7,16.23a3.52,3.52,0,0,1-1.22,1.06c-.9.48-2.36,1.92-1.7,6.11"/><path class="cls-7" d="M18.5,227.2s.5,3.62,4.5,1.92,4.53.28,4.53.28,3,4.08,2.75,8a21.84,21.84,0,0,0,6.5,15.83,5.71,5.71,0,0,0,1.4,1c.73.39,2,1.66,1.72,5.81"/><path class="cls-7" d="M146.15,383.44S133,390,137.38,398.79c1.1,4.39-3.29,5.48-3.29,5.48s2.19,12.06,6.58,13.16a14.91,14.91,0,0,0,7.67,0s5.48,2.19,1.1,4.39-13.16-4.39-14.25-5.48-6.58,1.1-6.58,1.1-2.19,4.39,0,4.39a22.3,22.3,0,0,0,5.48-1.1s16.45,7.67,15.35,13.16c0,0-1.1,4.39-4.39,2.19,0,0-7.67-11-12.06-11s-9.87,1.1-14.25,8.77c-1.1,2.19-5.48-1.1-5.48-1.1s-3.29,0-2.19,2.19,4.39,8.77,7.67,7.67,7.67-5.48,8.77-6.58,2.19,0,2.19,2.19,2.19,32.89,24.12,27.41,24.12-27.41,24.12-27.41,1.1-19.73-6.58-25.22c-4.39-3.29,12.06-18.64-5.48-29.6C152.73,379.06,146.15,383.44,146.15,383.44Z"/><path class="cls-7" d="M413.81,324.16s-.63,15.87,1.9,19.68S410,355.26,410,355.26s-1.27,1.9-5.08.63-14,3.81-12.06,12.06,4.44,11.43,4.44,11.43,2.54,4.44,1.27,7"/><path class="cls-7" d="M418.25,324.16s-2.44,9.14-.15,13.09a3.13,3.13,0,0,1,.24.51c1.21,3.35,1.81-.27,1.81-.27s1.9-7,8.25-3.81,12.7,15.23,11.43,20.31a23.07,23.07,0,0,1-7.62,12.7c-8,4.52-16.06,1.89-19.07.59a4.21,4.21,0,0,1-1.85-1.55c-1.34-2-4.69-6.52-7.65-6-3.81.63-7.62,2.54-7,5.71s0,7.62,5.08,13.33c5.71,5.08,2.54,8.25,2.54,8.25"/></g></g></svg>