<?xml version="1.0" encoding="UTF-8" standalone="no"?>
<svg width="22px" height="22px" viewBox="0 0 22 22" version="1.1" xmlns="http://www.w3.org/2000/svg" xmlns:xlink="http://www.w3.org/1999/xlink">
    <!-- Generator: Sketch 45.1 (43504) - http://www.bohemiancoding.com/sketch -->
    <title>instagram-logo</title>
    <desc>Created with Sketch.</desc>
    <defs></defs>
    <g id="Page-1" stroke="none" stroke-width="1" fill="none" fill-rule="evenodd">
        <g id="Mobile_LAB" transform="translate(-310.000000, -4907.000000)" fill-rule="nonzero" fill="#FFFFFF">
            <g id="Footer" transform="translate(-7.000000, 4889.000000)">
                <g id="Sociaux" transform="translate(242.000000, 18.000000)">
                    <g id="instagram-logo" transform="translate(75.000000, 0.000000)">
                        <path d="M15.5231286,0 L5.91650771,0 C2.65414734,0 0,2.65427416 0,5.91663453 L0,15.5232555 C0,18.7857426 2.65414734,21.43989 5.91650771,21.43989 L15.5231286,21.43989 C18.7857426,21.43989 21.43989,18.7856158 21.43989,15.5232555 L21.43989,5.91663453 C21.4400168,2.65427416 18.7857426,0 15.5231286,0 Z M19.5377659,15.5232555 C19.5377659,17.7368415 17.7368415,19.537639 15.5232555,19.537639 L5.91650771,19.537639 C3.70304851,19.5377659 1.90225095,17.7368415 1.90225095,15.5232555 L1.90225095,5.91663453 C1.90225095,3.70317533 3.70304851,1.90225095 5.91650771,1.90225095 L15.5231286,1.90225095 C17.7367147,1.90225095 19.537639,3.70317533 19.537639,5.91663453 L19.537639,15.5232555 L19.5377659,15.5232555 Z" id="Shape"></path>
                        <path d="M10.719945,5.19568142 C7.67368032,5.19568142 5.19542779,7.67393396 5.19542779,10.7201986 C5.19542779,13.7663365 7.67368032,16.2444622 10.719945,16.2444622 C13.7662097,16.2444622 16.2444622,13.7663365 16.2444622,10.7201986 C16.2444622,7.67393396 13.7662097,5.19568142 10.719945,5.19568142 Z M10.719945,14.3420844 C8.72270831,14.3420844 7.09767874,12.7173085 7.09767874,10.7200718 C7.09767874,8.72270831 8.7225815,7.09780555 10.719945,7.09780555 C12.7173085,7.09780555 14.3422112,8.72270831 14.3422112,10.7200718 C14.3422112,12.7173085 12.7171817,14.3420844 10.719945,14.3420844 Z" id="Shape"></path>
                        <path d="M16.4761564,3.58269943 C16.109656,3.58269943 15.7496233,3.73107501 15.4907904,3.9910493 C15.2306893,4.24975543 15.0811723,4.60991495 15.0811723,4.97768346 C15.0811723,5.34431063 15.2308161,5.70434333 15.4907904,5.96431762 C15.7494965,6.22302375 16.109656,6.37266749 16.4761564,6.37266749 C16.8439249,6.37266749 17.2028162,6.22302375 17.4627905,5.96431762 C17.7227648,5.70434333 17.8711404,5.34418381 17.8711404,4.97768346 C17.8711404,4.60991495 17.7227648,4.24975543 17.4627905,3.9910493 C17.2040844,3.73107501 16.8439249,3.58269943 16.4761564,3.58269943 Z" id="Shape"></path>
                    </g>
                </g>
            </g>
        </g>
    </g>
</svg>