<?xml version="1.0" encoding="utf-8"?>
<!-- Generator: Adobe Illustrator 21.1.0, SVG Export Plug-In . SVG Version: 6.00 Build 0)  -->
<svg version="1.1" id="Calque_1" xmlns="http://www.w3.org/2000/svg" xmlns:xlink="http://www.w3.org/1999/xlink" x="0px" y="0px"
	 viewBox="0 0 618 379" style="enable-background:new 0 0 618 379;" xml:space="preserve">
<style type="text/css">
	.st0{fill:none;stroke:#FFFFFF;stroke-width:15;stroke-miterlimit:10;}
	.st1{fill:none;stroke:#FFFFFF;stroke-width:16;stroke-miterlimit:10;}
	.st2{fill:none;stroke:#98D3F4;stroke-width:16;stroke-miterlimit:10;}
	.st3{fill:none;stroke:#337ADA;stroke-width:16;stroke-miterlimit:10;}
</style>
<path class="st0" d="M169,63c0,0-12-11-29-11c-38,0-39,42-39,42c0,12-12,41-44,41c-22,0-39-19.9-39-44c0-22,13.5-39.3,40-40"/>
<line class="st0" x1="18" y1="94" x2="99" y2="94"/>
<line class="st0" x1="183" y1="10" x2="183" y2="100"/>
<path class="st0" d="M268,92c0,0-2-41,41-41c40,0,42,42,42,42v86"/>
<path class="st0" d="M351,94c0,0,7,41,41,41c37,0,44-41,44-41h80"/>
<path class="st0" d="M435,92c0,0,5-41,40-41s43,33,43,43"/>
<line class="st0" x1="600" y1="132" x2="600" y2="91"/>
<path class="st1" d="M600.5,93.5c0-23-18-42-41-42s-40,18-41,42s-19,43-42,42s-42-18-42-42s-16-42-42-42s-40,18-41,42s-22,42-45,42
	s-36-17-38-41s-28-39-44-39s-39,14-40,34s-9,45-46,46s-38-39-38-39s-0.2-2.1-0.9-5.4c-2.6-12.2-11.8-40.6-40.1-40.6
	c-25.5-0.5-41,19-41,35"/>
<path class="st2" d="M169,253c0,0-12-11-29-11c-38,0-39,42-39,42c0,12-12,41-44,41c-22,0-39-19.9-39-44c0-22,13.5-39.3,40-40"/>
<line class="st2" x1="18" y1="284" x2="99" y2="284"/>
<line class="st2" x1="183" y1="200" x2="183" y2="290"/>
<path class="st2" d="M268,282c0,0-2-41,41-41c40,0,42,42,42,42v86"/>
<path class="st2" d="M351,284c0,0,7,41,41,41c37,0,44-41,44-41h80"/>
<path class="st2" d="M435,282c0,0,5-41,40-41s43,33,43,43"/>
<line class="st2" x1="600" y1="322" x2="600" y2="281"/>
<path class="st3" d="M600.5,283.5c0-23-18-42-41-42s-40,18-41,42s-19,43-42,42s-42-18-42-42s-16-42-42-42s-40,18-41,42s-22,42-45,42
	s-36-17-38-41s-28-39-44-39s-39,14-40,34s-9,45-46,46s-38-39-38-39s-0.2-2.1-0.9-5.4c-2.6-12.2-11.8-40.6-40.1-40.6
	c-25.5-0.5-41,19-41,35"/>
</svg>
