<?xml version="1.0" encoding="utf-8"?>
<!-- Generator: Adobe Illustrator 21.1.0, SVG Export Plug-In . SVG Version: 6.00 Build 0)  -->
<svg version="1.1" id="Calque_1" xmlns="http://www.w3.org/2000/svg" xmlns:xlink="http://www.w3.org/1999/xlink" x="0px" y="0px"
	 viewBox="0 0 1307.3 821.5" style="enable-background:new 0 0 1307.3 821.5;" xml:space="preserve">
<style type="text/css">
	.st0{fill:none;}
	.st1{fill:url(#SVGID_1_);}
	.st2{fill:url(#SVGID_2_);}
	.st3{fill:#FFFFFF;}
</style>
<title>Rectangle 2 Copy 4</title>
<desc>Created with Sketch.</desc>
<g>
	<polygon class="st0" points="1307.3,0 0,0 0,1 1307.3,0 	"/>
	<polygon class="st0" points="0,822.5 1307.3,822.5 1307.3,821.5 0,822.5 	"/>
	
		<linearGradient id="SVGID_1_" gradientUnits="userSpaceOnUse" x1="653.6499" y1="1902.2799" x2="653.6499" y2="1081.78" gradientTransform="matrix(1 0 0 -1 0 1903.28)">
		<stop  offset="0" style="stop-color:#3C6EB5"/>
		<stop  offset="0.2" style="stop-color:#4483B8"/>
		<stop  offset="0.4976" style="stop-color:#4999BB"/>
		<stop  offset="0.7223" style="stop-color:#4BB0BD"/>
		<stop  offset="0.8782" style="stop-color:#4BC6BF"/>
		<stop  offset="1" style="stop-color:#46DDC1"/>
	</linearGradient>
	<path class="st1" d="M0,166.5C217.8-3.6,644,193,909.2,249.3c220.3,46.7,345.7,1.6,398.1-26.8v-50.9
		c-188.4,130.3-514.6-8-536.6-15.7c-22.4-7.9-299.8-104-299.8-104C154.8-46.6,30.3,69.1,0,106.1"/>
	
		<linearGradient id="SVGID_2_" gradientUnits="userSpaceOnUse" x1="653.6499" y1="1902.2799" x2="653.6499" y2="1081.78" gradientTransform="matrix(1 0 0 -1 0 1903.28)">
		<stop  offset="0" style="stop-color:#3C6EB5"/>
		<stop  offset="0.2" style="stop-color:#4483B8"/>
		<stop  offset="0.4976" style="stop-color:#4999BB"/>
		<stop  offset="0.7223" style="stop-color:#4BB0BD"/>
		<stop  offset="0.8782" style="stop-color:#4BC6BF"/>
		<stop  offset="1" style="stop-color:#46DDC1"/>
	</linearGradient>
	<path class="st2" d="M0,693.1v44.1c36.1,18.9,195.6,82.3,681.8,59.5c0,0,171.4-19.4,625.5-81.4v-14.5
		C1119.3,720.5,318.8,796.6,0,693.1z"/>
	<polygon class="st3" points="1307.3,1 1307.3,0 0,1 0,1 	"/>
	<path class="st3" d="M0,106.1c30.3-37,154.8-152.7,470.9-54.2c0,0,277.4,96.1,299.8,104c22,7.8,348.2,146,536.6,15.7V1H0V106.1z"/>
	<polygon class="st3" points="0,821.5 0,822.5 1307.3,821.5 1307.3,821.5 	"/>
	<path class="st3" d="M1307.3,821.5V715.2c-454.1,62-625.5,81.4-625.5,81.4C195.6,819.4,36.1,756,0,737.1v84.4H1307.3z"/>
</g>
</svg>
